<?xml version="1.0" encoding="utf-8"?>
<!-- Generator: Adobe Adobe Illustrator 24.2.0, SVG Export Plug-In . SVG Version: 6.00 Build 0)  -->
<svg version="1.1" xmlns="http://www.w3.org/2000/svg" xmlns:xlink="http://www.w3.org/1999/xlink" x="0px" y="0px" width="612px"
	 height="301px" viewBox="0 0 612 301" style="enable-background:new 0 0 612 301;" xml:space="preserve">
<style type="text/css">
	.st0{fill:#FE5C46;}
</style>
<g id="About_me">
</g>
<g id="Skill">
</g>
<g id="PORTFOLIO">
	<path class="st0" d="M40.34,130.13c0,0-0.22-3.09,2.24-3.09c3.65,0,12.96-0.26,18.33-0.26c22.14,0,23.94,14.22,23.94,19.62
		c0,16.11-12.87,21.87-25.02,21.87c-1.56,0-3.02-0.03-4.38-0.17c-1.41-0.14-2.64,0.93-2.64,2.35l0,23c0,1.31-1.06,2.37-2.37,2.37
		h-8.27c-1.01,0-1.83-0.82-1.83-1.83V130.13z M52.81,159.5c0,1.18,0.87,2.18,2.04,2.35c1.5,0.22,3.23,0.3,5.16,0.3
		c10.8,0,17.37-5.4,17.37-15.21S70.36,132.8,61,132.8c-2.49,0-4.56,0.16-6.14,0.37c-1.18,0.16-2.05,1.16-2.05,2.35V159.5z"/>
	<path class="st0" d="M154.96,161.47c0,25.63-14.34,38.25-31.56,38.25c-18.07,0-30.89-14.25-30.89-37.01
		c0-23.71,13.48-38.16,31.75-38.16C142.91,124.56,154.96,139.48,154.96,161.47z M108.84,165.02c0,15.49,0.03,28.1,14.85,28.1
		c15.01,0,16.45-13.72,16.45-30.36c0-14.63-0.67-31.6-16.26-31.6C107.82,131.16,108.84,149.53,108.84,165.02z"/>
	<path class="st0" d="M417.32,159.94c0,25.63-14.34,38.25-31.56,38.25c-18.07,0-30.89-14.25-30.89-37.01
		c0-23.71,13.48-38.16,31.75-38.16C405.27,123.03,417.32,137.95,417.32,159.94z M371.19,163.49c0,15.49,0.03,28.1,14.85,28.1
		c15.01,0,16.45-13.72,16.45-30.36c0-14.63-0.67-31.6-16.26-31.6C370.17,129.63,371.19,148,371.19,163.49z"/>
	<path class="st0" d="M580.74,159.94c0,25.63-14.34,38.25-31.56,38.25c-18.07,0-30.89-14.25-30.89-37.01
		c0-23.71,13.48-38.16,31.75-38.16C568.69,123.03,580.74,137.95,580.74,159.94z M534.61,163.49c0,15.49,0.03,28.1,14.85,28.1
		c15.01,0,16.45-13.72,16.45-30.36c0-14.63-0.67-31.6-16.26-31.6C533.59,129.63,534.61,148,534.61,163.49z"/>
	<path class="st0" d="M274.43,135.78h-15.6c-1.43,0-2.58,1.16-2.58,2.58v60.91c0,1.43-1.16,2.58-2.58,2.58h-8.27
		c-1.43,0-2.58-1.16-2.58-2.58v-60.91c0-1.43-1.16-2.58-2.58-2.58H228.6c-1.36,0-2.46-1.1-2.46-2.46v-1.77
		c0-1.36,1.1-2.46,2.46-2.46h45.83c1.43,0,2.58,1.16,2.58,2.58v1.53C277.01,134.62,275.86,135.78,274.43,135.78z"/>
	<path class="st0" d="M242.74,209.37v-3.71c0-1.39,1.13-2.52,2.52-2.52h8.71c1.39,0,2.52,1.13,2.52,2.52v3.71
		c0,1.39-1.13,2.52-2.52,2.52h-8.71C243.87,211.89,242.74,210.76,242.74,209.37z"/>
	<path class="st0" d="M242.83,215.59L242.83,215.59c0-1.04,0.84-1.88,1.87-1.88h9.5c1.04,0,1.88,0.84,1.88,1.87l0,0
		c0,1.04-0.84,1.88-1.88,1.88l-9.5,0C243.67,217.47,242.83,216.63,242.83,215.59z"/>
	<path class="st0" d="M242.74,209.37v-3.71c0-1.39,1.13-2.52,2.52-2.52h8.71c1.39,0,2.52,1.13,2.52,2.52v3.71
		c0,1.39-1.13,2.52-2.52,2.52h-8.71C243.87,211.89,242.74,210.76,242.74,209.37z"/>
	<path class="st0" d="M242.83,215.59L242.83,215.59c0-1.04,0.84-1.88,1.87-1.88h9.5c1.04,0,1.88,0.84,1.88,1.87l0,0
		c0,1.04-0.84,1.88-1.88,1.88l-9.5,0C243.67,217.47,242.83,216.63,242.83,215.59z"/>
	<path class="st0" d="M40.33,202.79v-3.35c0-1.39,1.13-2.52,2.52-2.52h7.46c1.39,0,2.52,1.13,2.52,2.52v3.35
		c0,1.39-1.13,2.52-2.52,2.52h-7.46C41.46,205.31,40.33,204.18,40.33,202.79z"/>
	<path class="st0" d="M40.41,208.93v-0.13c0-0.96,0.78-1.73,1.73-1.73l8.58,0c0.96,0,1.73,0.78,1.73,1.73v0.13
		c0,0.96-0.78,1.73-1.73,1.73h-8.58C41.19,210.66,40.41,209.88,40.41,208.93z"/>
	<path class="st0" d="M40.33,202.79v-3.35c0-1.39,1.13-2.52,2.52-2.52h7.46c1.39,0,2.52,1.13,2.52,2.52v3.35
		c0,1.39-1.13,2.52-2.52,2.52h-7.46C41.46,205.31,40.33,204.18,40.33,202.79z"/>
	<path class="st0" d="M40.41,208.43v-0.13c0-0.96,0.78-1.73,1.73-1.73l8.58,0c0.96,0,1.73,0.78,1.73,1.73v0.13
		c0,0.96-0.78,1.73-1.73,1.73h-8.58C41.19,210.16,40.41,209.38,40.41,208.43z"/>
	<g>
		<path class="st0" d="M428.34,128.89c0-2.7,3.93-3.37,8.54-3.37c4.74,0,5.89,0.67,5.89,3.28v55.62c0,2.07,0.74,4.4,2.41,4.4h25.64
			c1.88,0,3.17-0.41,3.17,2.91c0,4.61-0.87,3.94-2.97,3.94H443.2c-5.14,0-15.14,0.33-14.86-9.63V128.89z"/>
		<path class="st0" d="M474.62,193.64v-3.29c0-0.96,0.78-1.73,1.73-1.73h0.84c0.96,0,1.73,0.78,1.73,1.73v3.29
			c0,0.96-0.78,1.73-1.73,1.73l-0.84,0C475.39,195.37,474.62,194.6,474.62,193.64z"/>
		<path class="st0" d="M479.57,194.35v-4.7c0-0.5,0.4-0.9,0.9-0.9h0.22c0.5,0,0.9,0.4,0.9,0.9v4.7c0,0.5-0.4,0.9-0.9,0.9h-0.22
			C479.97,195.25,479.57,194.84,479.57,194.35z"/>
	</g>
	<g>
		<path class="st0" d="M289.32,204.07v-72.8c0-1.21,0.92-2.18,2.05-2.18h38.71c1.13,0,2.05,0.98,2.05,2.18v2.72
			c0,1.21-0.92,2.18-2.05,2.18h-24.49c-1.13,0-2.05,0.98-2.05,2.18v23.08c0,1.21,0.92,2.18,2.05,2.18h22.22
			c1.13,0,2.05,0.98,2.05,2.18v2.62c0,1.21-0.92,2.18-2.05,2.18h-22.22c-1.13,0-2.05,0.98-2.05,2.18v31.28
			c0,1.21-0.92,2.18-2.05,2.18h-10.12C290.23,206.25,289.32,205.27,289.32,204.07z"/>
		<path class="st0" d="M332.93,135.04v-4.88c0-0.6,0.48-1.08,1.08-1.08h2.41c0.6,0,1.08,0.48,1.08,1.08v4.88
			c0,0.6-0.48,1.08-1.08,1.08h-2.41C333.41,136.12,332.93,135.63,332.93,135.04z"/>
		<path class="st0" d="M338.18,135.09v-4.98c0-0.5,0.4-0.9,0.9-0.9h0.34c0.5,0,0.9,0.4,0.9,0.9v4.98c0,0.5-0.4,0.9-0.9,0.9h-0.34
			C338.58,135.99,338.18,135.58,338.18,135.09z"/>
		<path class="st0" d="M330.64,169.64v-4.88c0-0.6,0.48-1.08,1.08-1.08h2.41c0.6,0,1.08,0.48,1.08,1.08v4.88
			c0,0.6-0.48,1.08-1.08,1.08h-2.41C331.12,170.72,330.64,170.24,330.64,169.64z"/>
		<path class="st0" d="M335.9,169.69v-4.98c0-0.5,0.4-0.9,0.9-0.9h0.34c0.5,0,0.9,0.4,0.9,0.9v4.98c0,0.5-0.4,0.9-0.9,0.9l-0.34,0
			C336.3,170.59,335.9,170.19,335.9,169.69z"/>
	</g>
	<g>
		<path class="st0" d="M491.6,126.72c0-2.52,4.3-3.69,6.73-3.69c3.79,0,7.41,1.17,7.41,3.69v63.81c0,2.43-1.97,2.78-6.66,2.78
			c-5.16,0-7.48-0.35-7.48-2.78V126.72z"/>
		<path class="st0" d="M491.79,200.53v-3.71c0-1.39,1.13-2.52,2.52-2.52h8.71c1.39,0,2.52,1.13,2.52,2.52v3.71
			c0,1.39-1.13,2.52-2.52,2.52h-8.71C492.92,203.06,491.79,201.93,491.79,200.53z"/>
		<path class="st0" d="M492.04,206.04L492.04,206.04c0-1.04,0.84-1.88,1.87-1.88l9.5,0c1.04,0,1.88,0.84,1.88,1.88l0,0
			c0,1.04-0.84,1.88-1.88,1.88h-9.5C492.88,207.91,492.04,207.07,492.04,206.04z"/>
	</g>
	<path class="st0" d="M154.96,161.47c0,25.63-14.34,38.25-31.56,38.25c-18.07,0-30.89-14.25-30.89-37.01
		c0-23.71,13.48-38.16,31.75-38.16C142.91,124.56,154.96,139.48,154.96,161.47z M108.84,165.02c0,15.49,0.03,28.1,14.85,28.1
		c15.01,0,16.45-13.72,16.45-30.36c0-14.63-0.67-31.6-16.26-31.6C107.82,131.16,108.84,149.53,108.84,165.02z"/>
	<path class="st0" d="M274.43,135.78h-15.6c-1.43,0-2.58,1.16-2.58,2.58v60.91c0,1.43-1.16,2.58-2.58,2.58h-8.27
		c-1.43,0-2.58-1.16-2.58-2.58v-60.91c0-1.43-1.16-2.58-2.58-2.58H228.6c-1.36,0-2.46-1.1-2.46-2.46v-1.77
		c0-1.36,1.1-2.46,2.46-2.46h45.83c1.43,0,2.58,1.16,2.58,2.58v1.53C277.01,134.62,275.86,135.78,274.43,135.78z"/>
	<path class="st0" d="M242.74,209.37v-3.71c0-1.39,1.13-2.52,2.52-2.52h8.71c1.39,0,2.52,1.13,2.52,2.52v3.71
		c0,1.39-1.13,2.52-2.52,2.52h-8.71C243.87,211.89,242.74,210.76,242.74,209.37z"/>
	<path class="st0" d="M242.83,215.59L242.83,215.59c0-1.04,0.84-1.88,1.87-1.88h9.5c1.04,0,1.88,0.84,1.88,1.87l0,0
		c0,1.04-0.84,1.88-1.88,1.88l-9.5,0C243.67,217.47,242.83,216.63,242.83,215.59z"/>
	<path class="st0" d="M242.74,209.37v-3.71c0-1.39,1.13-2.52,2.52-2.52h8.71c1.39,0,2.52,1.13,2.52,2.52v3.71
		c0,1.39-1.13,2.52-2.52,2.52h-8.71C243.87,211.89,242.74,210.76,242.74,209.37z"/>
	<path class="st0" d="M242.83,215.59L242.83,215.59c0-1.04,0.84-1.88,1.87-1.88h9.5c1.04,0,1.88,0.84,1.88,1.87l0,0
		c0,1.04-0.84,1.88-1.88,1.88l-9.5,0C243.67,217.47,242.83,216.63,242.83,215.59z"/>
	<g>
		<path class="st0" d="M200.8,162.95c5.31,1.71,9.71,13.59,11.33,21.06c1.69,7.73,9.49,35.6,10.62,38.82
			c0.38,1.08-0.41,2.22-1.55,2.22H217c-0.68,0-1.29-0.41-1.54-1.04c-1.03-2.64-8.89-30.64-10.44-38.02
			c-1.98-9.54-7.01-20.52-15.11-20.52h-6.72c-0.91,0-1.65,0.74-1.65,1.65v27.02c0,0.91-0.74,1.65-1.65,1.65l-8.66,0.13
			c-0.92,0-1.66-0.74-1.65-1.66l0.24-65.54c0-0.91,0.73-1.64,1.63-1.65c4.01-0.04,13.46-0.31,18.19-0.31
			c8.91,0,14.76,1.8,18.81,5.58c3.24,2.97,5.13,7.65,5.13,12.78c0,9.09-5.49,14.94-12.78,17.55V162.95z M190.36,159.71
			c9.54,0,15.66-5.4,15.66-13.68c0-10.17-7.65-12.57-16.02-12.57c-2.87,0-5.18-0.02-6.8-0.02c-0.92,0-1.66,0.74-1.66,1.65v22.96
			c0,0.91,0.74,1.65,1.65,1.65H190.36z"/>
		<path class="st0" d="M169.58,203.17v-3.35c0-1.39,1.13-2.52,2.52-2.52h7.46c1.39,0,2.52,1.13,2.52,2.52v3.35
			c0,1.39-1.13,2.52-2.52,2.52h-7.46C170.71,205.69,169.58,204.56,169.58,203.17z"/>
		<path class="st0" d="M169.66,209.31v-0.13c0-0.96,0.78-1.73,1.73-1.73l8.58,0c0.96,0,1.73,0.78,1.73,1.73v0.13
			c0,0.96-0.78,1.73-1.73,1.73l-8.58,0C170.43,211.04,169.66,210.27,169.66,209.31z"/>
		<path class="st0" d="M169.58,203.17v-3.35c0-1.39,1.13-2.52,2.52-2.52h7.46c1.39,0,2.52,1.13,2.52,2.52v3.35
			c0,1.39-1.13,2.52-2.52,2.52h-7.46C170.71,205.69,169.58,204.56,169.58,203.17z"/>
		<path class="st0" d="M169.66,208.81v-0.13c0-0.96,0.78-1.73,1.73-1.73l8.58,0c0.96,0,1.73,0.78,1.73,1.73v0.13
			c0,0.96-0.78,1.73-1.73,1.73l-8.58,0C170.43,210.54,169.66,209.77,169.66,208.81z"/>
		<path class="st0" d="M200.8,162.95c5.31,1.71,9.71,13.59,11.33,21.06c1.69,7.73,9.49,35.6,10.62,38.82
			c0.38,1.08-0.41,2.22-1.55,2.22H217c-0.68,0-1.29-0.41-1.54-1.04c-1.03-2.64-8.89-30.64-10.44-38.02
			c-1.98-9.54-7.01-20.52-15.11-20.52h-6.72c-0.91,0-1.65,0.74-1.65,1.65v27.02c0,0.91-0.74,1.65-1.65,1.65l-8.66,0.13
			c-0.92,0-1.66-0.74-1.65-1.66l0.24-65.54c0-0.91,0.73-1.64,1.63-1.65c4.01-0.04,13.46-0.31,18.19-0.31
			c8.91,0,14.76,1.8,18.81,5.58c3.24,2.97,5.13,7.65,5.13,12.78c0,9.09-5.49,14.94-12.78,17.55V162.95z M190.36,159.71
			c9.54,0,15.66-5.4,15.66-13.68c0-10.17-7.65-12.57-16.02-12.57c-2.87,0-5.18-0.02-6.8-0.02c-0.92,0-1.66,0.74-1.66,1.65v22.96
			c0,0.91,0.74,1.65,1.65,1.65H190.36z"/>
		<path class="st0" d="M169.58,203.17v-3.35c0-1.39,1.13-2.52,2.52-2.52h7.46c1.39,0,2.52,1.13,2.52,2.52v3.35
			c0,1.39-1.13,2.52-2.52,2.52h-7.46C170.71,205.69,169.58,204.56,169.58,203.17z"/>
		<path class="st0" d="M169.66,209.31v-0.13c0-0.96,0.78-1.73,1.73-1.73l8.58,0c0.96,0,1.73,0.78,1.73,1.73v0.13
			c0,0.96-0.78,1.73-1.73,1.73l-8.58,0C170.43,211.04,169.66,210.27,169.66,209.31z"/>
		<path class="st0" d="M169.58,203.17v-3.35c0-1.39,1.13-2.52,2.52-2.52h7.46c1.39,0,2.52,1.13,2.52,2.52v3.35
			c0,1.39-1.13,2.52-2.52,2.52h-7.46C170.71,205.69,169.58,204.56,169.58,203.17z"/>
		<path class="st0" d="M169.66,208.81v-0.13c0-0.96,0.78-1.73,1.73-1.73l8.58,0c0.96,0,1.73,0.78,1.73,1.73v0.13
			c0,0.96-0.78,1.73-1.73,1.73l-8.58,0C170.43,210.54,169.66,209.77,169.66,208.81z"/>
	</g>
</g>
<g id="レイヤー_5">
</g>
<g id="Contact">
</g>
</svg>
