<?xml version="1.0" encoding="utf-8"?>
<!-- Generator: Adobe Adobe Illustrator 24.2.0, SVG Export Plug-In . SVG Version: 6.00 Build 0)  -->
<svg version="1.1" xmlns="http://www.w3.org/2000/svg" xmlns:xlink="http://www.w3.org/1999/xlink" x="0px" y="0px" width="612px"
	 height="301px" viewBox="0 0 612 301" style="enable-background:new 0 0 612 301;" xml:space="preserve">
<style type="text/css">
	.st0{fill:#FE5C46;}
</style>
<g id="About_me">
	<path class="st0" d="M167.47,133.61c6.89,1.63,15.01,7.36,15.01,18.36c0,6.5-2.49,11.09-5.83,14.34
		c-4.88,4.78-12.72,6.89-23.72,6.89c-3.34,0-7.99-0.09-11.97-0.22c-4.05-0.13-7.27-3.46-7.27-7.52l0-56.56
		c0-4.65,3.55-8.53,8.19-8.94c4.6-0.4,9.84-0.69,13.25-0.69c8.99,0,14.92,1.72,19.22,5.36c3.44,2.96,5.45,7.17,5.45,12.62
		c0,7.17-4.88,13.39-12.34,16.07V133.61z M155.9,130.93c9.66,0,15.87-5.55,15.87-13v-0.1c0-8.61-6.31-12.34-16.26-12.34l-3.5,0
		c-2.55,0-4.63,2.09-4.63,4.63v16.17c0,2.56,2.07,4.63,4.63,4.63H155.9z M147.39,162.35c0,2.49,2.04,4.53,4.53,4.53l3.22,0
		c10.04,0,19.03-3.92,19.03-14.92c0-10.9-9.47-14.92-19.12-14.92h-3.12c-2.5,0-4.53,2.03-4.53,4.53V162.35z"/>
	<path class="st0" d="M315.4,143.36c0,21.9-11.28,30.41-25.82,30.41c-13.58,0-29.63-7.94-29.63-29.93l-0.5-64.63
		c0-1.16,0.94-2.1,2.1-2.1h11.48c1.16,0,2.1,0.94,2.1,2.1l0.5,64.73c0,16.54,4.77,23.24,14.33,23.24c10.52,0,17.5-7.08,17.5-23.24
		v-41.98c0-1.16,0.94-2.1,2.1-2.1h3.73c1.16,0,2.1,0.94,2.1,2.1V143.36z"/>
	<path class="st0" d="M469.11,172.62L469.11,172.62c-2.07,0-3.78-1.62-3.89-3.68l-1.61-29.12c-0.57-10.42-1.34-23.91-1.24-31.37
		h-0.29c-2.39,8.22-5.35,17.21-8.89,27.35l-12.08,33.94c-0.55,1.55-2.02,2.59-3.67,2.59h-0.29c-1.67,0-3.15-1.06-3.69-2.65
		l-11.25-33.12c-3.54-10.52-6.31-19.7-8.32-28.11h-0.29c-0.19,8.89-0.76,20.94-1.43,32.13l-1.78,28.38
		c-0.13,2.05-1.83,3.65-3.89,3.65h-6.21c-2.26,0-4.05-1.92-3.89-4.17l4.53-65.07c0.14-2.04,1.84-3.63,3.89-3.63h9.84
		c1.66,0,3.14,1.05,3.68,2.62l11.91,34.38c3.06,9.08,5.45,16.83,7.36,24.38h0.29c1.82-7.36,4.3-15.01,7.55-24.38l12.37-34.43
		c0.56-1.55,2.02-2.58,3.67-2.58h3.54c2.06,0,3.76,1.6,3.89,3.65l4.1,65.07C473.14,170.72,471.36,172.62,469.11,172.62z"/>
	<path class="st0" d="M523.08,172.62h-39.71c-1.58,0-2.86-1.28-2.86-2.86v-67.14c0-1.58,1.28-2.86,2.86-2.86h38.09
		c1.58,0,2.86,1.28,2.86,2.86v0.96c0,1.58-1.28,2.86-2.86,2.86h-23.15c-1.58,0-2.86,1.28-2.86,2.86v18.94
		c0,1.58,1.28,2.86,2.86,2.86h21.43c1.58,0,2.86,1.28,2.86,2.86v0.87c0,1.58-1.28,2.86-2.86,2.86h-21.43
		c-1.58,0-2.86,1.28-2.86,2.86v22.48c0,1.58,1.28,2.86,2.86,2.86h24.78c1.58,0,2.86,1.28,2.86,2.86v0.97
		C525.95,171.34,524.67,172.62,523.08,172.62z"/>
	<g>
		<path class="st0" d="M126.47,172.62h-4.8c-0.74,0-1.4-0.47-1.63-1.18l-6.01-18.09c-0.86-2.6-3.29-4.35-6.03-4.35H91.87
			c-2.75,0-5.19,1.77-6.04,4.39l-24.77,67.83c-0.27,0.83-1.05,1.4-1.92,1.4h-3.86c-0.74,0-3.41-0.37-5.72-0.71
			c-1.93-0.29-3.14-2.25-2.53-4.1l39.61-112.32c2.89-7.03,10.79-5.74,13.53-5.74h0c2.74,0,5.17,1.76,6.03,4.36l21.91,66.25
			C128.47,171.48,127.64,172.62,126.47,172.62z M106.53,142.69c2.18,0,3.73-2.14,3.04-4.21l-5.78-17.4
			c-0.72-2.33-1.47-4.88-2.12-7.16c-0.52-1.8-3.08-1.79-3.57,0.01c-0.62,2.27-1.29,4.56-1.96,6.86l-5.87,17.69
			c-0.69,2.07,0.85,4.21,3.04,4.21H106.53z"/>
		<path class="st0" d="M126.47,172.62h-4.8c-0.74,0-1.4-0.47-1.63-1.18l-6.01-18.09c-0.86-2.6-3.29-4.35-6.03-4.35H91.87
			c-2.75,0-5.19,1.77-6.04,4.39l-24.77,67.83c-0.27,0.83-1.05,1.4-1.92,1.4h-3.86c-0.74,0-3.41-0.37-5.72-0.71
			c-1.93-0.29-3.14-2.25-2.53-4.1l39.61-112.32c2.89-7.03,10.79-5.74,13.53-5.74h0c2.74,0,5.17,1.76,6.03,4.36l21.91,66.25
			C128.47,171.48,127.64,172.62,126.47,172.62z M106.53,142.69c2.18,0,3.73-2.14,3.04-4.21l-5.78-17.4
			c-0.72-2.33-1.47-4.88-2.12-7.16c-0.52-1.8-3.08-1.79-3.57,0.01c-0.62,2.27-1.29,4.56-1.96,6.86l-5.87,17.69
			c-0.69,2.07,0.85,4.21,3.04,4.21H106.53z"/>
		<path class="st0" d="M42.7,231l1.62-4.37c0.31-1.98,2.06-3.34,3.9-3.05l10.48,1.28c0.9,0.14,1.5,1.04,1.35,2l-1.5,5.31
			c-0.31,1.98-2.06,3.34-3.9,3.05l-10.07-1.43C43.33,233.59,42.49,232.34,42.7,231z"/>
		<path class="st0" d="M41.41,238.56c-0.48-0.29-0.69-0.75-0.53-1.15l0.35-0.91c0.09-0.57,1.66-0.8,3.5-0.51l10.44,1.54
			c0.16,0.03,0.32,0.06,0.47,0.1c0.68,0.17,1.04,0.73,0.77,1.17L55.83,240c-0.46,0.61-1.66,0.8-3.5,0.51l-9.53-1.41
			C42.44,239.13,41.87,238.84,41.41,238.56z"/>
	</g>
	<path class="st0" d="M253.15,135.52c0,25.63-14.34,38.25-31.56,38.25c-18.07,0-30.89-14.25-30.89-37.01
		c0-23.71,13.48-38.16,31.75-38.16C241.1,98.61,253.15,113.52,253.15,135.52z M207.03,139.07c0,15.49,0.03,28.1,14.85,28.1
		c15.01,0,16.45-13.72,16.45-30.36c0-14.63-0.67-31.6-16.26-31.6C206.01,105.2,207.03,123.58,207.03,139.07z"/>
	<path class="st0" d="M259.44,71.83v-3.81c0-1.16,0.94-2.1,2.1-2.1h11.31c1.16,0,2.1,0.94,2.1,2.1v3.81c0,1.16-0.94,2.1-2.1,2.1
		h-11.31C260.38,73.92,259.44,72.99,259.44,71.83z"/>
	<path class="st0" d="M259.44,62.17L259.44,62.17c0-0.97,0.78-1.75,1.75-1.75h12c0.97,0,1.75,0.78,1.75,1.75v0
		c0,0.97-0.78,1.75-1.75,1.75h-12C260.23,63.92,259.44,63.14,259.44,62.17z"/>
	<path class="st0" d="M396.06,180.8l0.12-3.7c0.04-1.39,1.21-2.48,2.6-2.44l8.7,0.28c1.39,0.04,2.48,1.21,2.44,2.6l-0.12,3.7
		c-0.04,1.39-1.21,2.48-2.6,2.44l-8.7-0.28C397.11,183.36,396.01,182.19,396.06,180.8z"/>
	<path class="st0" d="M395.95,187.02L395.95,187.02c0.03-1.03,0.9-1.85,1.93-1.81l9.5,0.3c1.04,0.03,1.85,0.9,1.81,1.93l0,0
		c-0.03,1.04-0.9,1.85-1.93,1.81l-9.5-0.3C396.73,188.92,395.92,188.06,395.95,187.02z"/>
	<path class="st0" d="M525.95,104.77v-3.29c0-0.96,0.78-1.73,1.73-1.73h1.89c0.96,0,1.73,0.78,1.73,1.73v3.29
		c0,0.96-0.78,1.73-1.73,1.73h-1.89C526.72,106.5,525.95,105.73,525.95,104.77z"/>
	<path class="st0" d="M532.42,105.61v-4.7c0-0.5,0.4-0.9,0.9-0.9l0.7,0c0.5,0,0.9,0.4,0.9,0.9v4.7c0,0.5-0.4,0.9-0.9,0.9l-0.7,0
		C532.83,106.5,532.42,106.1,532.42,105.61z"/>
	<g>
		<path class="st0" d="M371.72,106.54h-15.6c-1.43,0-2.58,1.16-2.58,2.58v60.91c0,1.43-1.16,2.58-2.58,2.58h-8.27
			c-1.43,0-2.58-1.16-2.58-2.58v-60.91c0-1.43-1.16-2.58-2.58-2.58h-11.63c-1.36,0-2.46-1.1-2.46-2.46v-1.77
			c0-1.36,1.1-2.46,2.46-2.46h45.83c1.43,0,2.58,1.16,2.58,2.58v1.53C374.3,105.39,373.14,106.54,371.72,106.54z"/>
		<path class="st0" d="M340.03,180.13v-3.71c0-1.39,1.13-2.52,2.52-2.52h8.71c1.39,0,2.52,1.13,2.52,2.52v3.71
			c0,1.39-1.13,2.52-2.52,2.52h-8.71C341.15,182.66,340.03,181.53,340.03,180.13z"/>
		<path class="st0" d="M340.11,186.36L340.11,186.36c0-1.04,0.84-1.88,1.87-1.88l9.5,0c1.04,0,1.88,0.84,1.88,1.88l0,0
			c0,1.04-0.84,1.88-1.88,1.88h-9.5C340.95,188.23,340.11,187.39,340.11,186.36z"/>
	</g>
</g>
<g id="Skill">
</g>
<g id="PORTFOLIO">
</g>
<g id="レイヤー_5">
</g>
<g id="Contact">
</g>
</svg>
