<?xml version="1.0" encoding="utf-8"?>
<!-- Generator: Adobe Adobe Illustrator 24.2.0, SVG Export Plug-In . SVG Version: 6.00 Build 0)  -->
<svg version="1.1" xmlns="http://www.w3.org/2000/svg" xmlns:xlink="http://www.w3.org/1999/xlink" x="0px" y="0px" width="612px"
	 height="301px" viewBox="0 0 612 301" style="enable-background:new 0 0 612 301;" xml:space="preserve">
<style type="text/css">
	.st0{fill:#FE5C46;}
</style>
<g id="About_me">
</g>
<g id="Skill">
</g>
<g id="PORTFOLIO">
</g>
<g id="レイヤー_5">
</g>
<g id="Contact">
	<g>
		<path class="st0" d="M503.36,119.96h-15.6c-1.43,0-2.58,1.16-2.58,2.58v60.91c0,1.43-1.16,2.58-2.58,2.58h-8.27
			c-1.43,0-2.58-1.16-2.58-2.58v-60.91c0-1.43-1.16-2.58-2.58-2.58h-11.63c-1.36,0-2.46-1.1-2.46-2.46v-1.77
			c0-1.36,1.1-2.46,2.46-2.46h45.83c1.43,0,2.58,1.16,2.58,2.58v1.53C505.94,118.8,504.79,119.96,503.36,119.96z"/>
		<path class="st0" d="M503.36,119.96h-15.6c-1.43,0-2.58,1.16-2.58,2.58v60.91c0,1.43-1.16,2.58-2.58,2.58h-8.27
			c-1.43,0-2.58-1.16-2.58-2.58v-60.91c0-1.43-1.16-2.58-2.58-2.58h-11.63c-1.36,0-2.46-1.1-2.46-2.46v-1.77
			c0-1.36,1.1-2.46,2.46-2.46h45.83c1.43,0,2.58,1.16,2.58,2.58v1.53C505.94,118.8,504.79,119.96,503.36,119.96z"/>
		<path class="st0" d="M471.67,193.55v-3.71c0-1.39,1.13-2.52,2.52-2.52h8.71c1.39,0,2.52,1.13,2.52,2.52v3.71
			c0,1.39-1.13,2.52-2.52,2.52h-8.71C472.8,196.07,471.67,194.94,471.67,193.55z"/>
		<path class="st0" d="M471.76,199.77L471.76,199.77c0-1.04,0.84-1.87,1.87-1.87l9.5,0c1.04,0,1.88,0.84,1.88,1.87v0
			c0,1.04-0.84,1.87-1.88,1.87l-9.5,0C472.6,201.64,471.76,200.8,471.76,199.77z"/>
	</g>
	<g>
		<path class="st0" d="M318.85,119.96h-15.6c-1.43,0-2.58,1.16-2.58,2.58v60.91c0,1.43-1.16,2.58-2.58,2.58h-8.27
			c-1.43,0-2.58-1.16-2.58-2.58v-60.91c0-1.43-1.16-2.58-2.58-2.58h-11.63c-1.36,0-2.46-1.1-2.46-2.46v-1.77
			c0-1.36,1.1-2.46,2.46-2.46h45.83c1.43,0,2.58,1.16,2.58,2.58v1.53C321.44,118.8,320.28,119.96,318.85,119.96z"/>
		<path class="st0" d="M318.85,119.96h-15.6c-1.43,0-2.58,1.16-2.58,2.58v60.91c0,1.43-1.16,2.58-2.58,2.58h-8.27
			c-1.43,0-2.58-1.16-2.58-2.58v-60.91c0-1.43-1.16-2.58-2.58-2.58h-11.63c-1.36,0-2.46-1.1-2.46-2.46v-1.77
			c0-1.36,1.1-2.46,2.46-2.46h45.83c1.43,0,2.58,1.16,2.58,2.58v1.53C321.44,118.8,320.28,119.96,318.85,119.96z"/>
		<path class="st0" d="M287.16,193.55v-3.71c0-1.39,1.13-2.52,2.52-2.52h8.71c1.39,0,2.52,1.13,2.52,2.52v3.71
			c0,1.39-1.13,2.52-2.52,2.52h-8.71C288.29,196.07,287.16,194.94,287.16,193.55z"/>
		<path class="st0" d="M287.25,199.77L287.25,199.77c0-1.04,0.84-1.87,1.87-1.87l9.5,0c1.04,0,1.88,0.84,1.88,1.87v0
			c0,1.04-0.84,1.87-1.88,1.87l-9.5,0C288.09,201.64,287.25,200.8,287.25,199.77z"/>
	</g>
	<path class="st0" d="M203.14,193.65v-3.71c0-1.39,1.13-2.52,2.52-2.52h8.71c1.39,0,2.52,1.13,2.52,2.52v3.71
		c0,1.39-1.13,2.52-2.52,2.52h-8.71C204.27,196.17,203.14,195.04,203.14,193.65z"/>
	<path class="st0" d="M203.39,199.15L203.39,199.15c0-1.04,0.84-1.87,1.87-1.87l9.5,0c1.04,0,1.88,0.84,1.88,1.88l0,0
		c0,1.04-0.84,1.87-1.88,1.87l-9.5,0C204.23,201.03,203.39,200.19,203.39,199.15z"/>
	<path class="st0" d="M121.99,130c0.27,0.63,0.64,1.11,0.71,1.65c0.24,1.81-0.7,2.15-2.33,3.22c-1.27,0.84-2.65,1.18-2.67,1.19
		c-1.67,0.1-1.99-0.5-3.71-2.27c-0.24-0.25-0.48-0.51-0.69-0.78c-4.14-5.21-7.13-11.38-17.13-11.38c-13.5,0-18.91,10.89-18.91,28.62
		c0,17.37,5.41,28.53,18.91,28.53c10.8,0,15.93-6.48,18.27-13.68c0.72-1.98,1.4-3.43,3.85-3.14c0.54,0.06,1.37,0.44,2,0.62
		c3.51,1.49,4.09,2.03,3.5,3.8c-0.17,0.51-0.34,0.84-0.52,1.38c-3.15,8.91-10.81,18.94-26.83,18.94c-19.35,0-33.18-8.44-33.18-35.04
		c0-26.32,13.83-37.86,32.55-37.86C111.64,113.81,117.12,122.65,121.99,130z"/>
	<path class="st0" d="M447.01,130.23c0.27,0.63,0.64,1.11,0.71,1.65c0.24,1.81-0.7,2.15-2.33,3.22c-1.27,0.84-2.65,1.18-2.67,1.19
		c-1.67,0.1-1.99-0.5-3.71-2.27c-0.24-0.25-0.48-0.51-0.69-0.78c-4.14-5.21-7.13-11.38-17.13-11.38c-13.5,0-18.91,10.89-18.91,28.62
		c0,17.37,5.41,28.53,18.91,28.53c10.8,0,15.93-6.48,18.27-13.68c0.72-1.98,1.4-3.43,3.85-3.14c0.54,0.06,1.37,0.44,2,0.62
		c3.51,1.49,4.09,2.03,3.5,3.8c-0.17,0.51-0.34,0.84-0.52,1.38c-3.15,8.91-10.81,18.94-26.83,18.94c-19.35,0-33.18-8.44-33.18-35.04
		c0-26.32,13.83-37.86,32.55-37.86C436.66,114.03,442.14,122.88,447.01,130.23z"/>
	<path class="st0" d="M193.13,149.81c0,25.63-14.34,38.25-31.56,38.25c-18.07,0-30.89-14.25-30.89-37.01
		c0-23.71,13.48-38.16,31.75-38.16C181.08,112.9,193.13,127.82,193.13,149.81z M147.01,153.36c0,15.49,0.03,28.1,14.85,28.1
		c15.01,0,16.45-13.72,16.45-30.36c0-14.63-0.67-31.6-16.26-31.6C145.99,119.5,147.01,137.87,147.01,153.36z"/>
	<path class="st0" d="M255.78,118.58c0-2.65,1.99-3.81,4.72-3.68c2.14,0.1,3.83,1.85,3.83,3.99v61.52c0,3.51-1.8,5.67-5.4,5.67
		c-3.87,0-5.31-1.53-7.56-5.13l-23.85-38.61c-3.6-5.76-8.1-14.58-10.17-19.08c0.54,5.76,0.26,18.27,0.26,31.5v27.63
		c0,0.94-0.49,1.71-1.09,2.3c-0.94,0.92-2.01,0.91-3.32,0.99c-1.75,0.11-5.01,0.13-7.21-0.27c-1.51-0.28-2.6-1.58-2.6-3.12
		l-0.08-59.75c-0.34-9.33,8.91-7.65,12.42-7.65c4.05,0,5.58,1.62,7.29,4.32l22.68,36.81c4.14,6.75,9.18,16.38,11.52,21.42
		c-0.54-5.58-1.44-18.63-1.44-31.59V118.58z"/>
	<g>
		<path class="st0" d="M381.64,184.2h-4.8c-0.74,0-1.4-0.47-1.63-1.18l-6.01-18.09c-0.86-2.6-3.29-4.35-6.03-4.35h-16.14
			c-2.75,0-5.19,1.77-6.04,4.39l-24.77,67.83c-0.27,0.83-1.05,1.4-1.92,1.4h-3.86c-0.74,0-3.41-0.37-5.72-0.71
			c-1.93-0.29-3.14-2.25-2.53-4.1l39.61-112.32c2.89-7.03,10.79-5.74,13.53-5.74l0,0c2.74,0,5.17,1.76,6.03,4.36l21.91,66.25
			C383.64,183.06,382.81,184.2,381.64,184.2z M361.7,154.27c2.18,0,3.73-2.14,3.04-4.21l-5.78-17.4c-0.72-2.33-1.47-4.88-2.12-7.16
			c-0.52-1.8-3.08-1.79-3.57,0.01c-0.62,2.27-1.29,4.56-1.96,6.86l-5.87,17.69c-0.69,2.07,0.85,4.21,3.04,4.21H361.7z"/>
		<path class="st0" d="M381.64,184.2h-4.8c-0.74,0-1.4-0.47-1.63-1.18l-6.01-18.09c-0.86-2.6-3.29-4.35-6.03-4.35h-16.14
			c-2.75,0-5.19,1.77-6.04,4.39l-24.77,67.83c-0.27,0.83-1.05,1.4-1.92,1.4h-3.86c-0.74,0-3.41-0.37-5.72-0.71
			c-1.93-0.29-3.14-2.25-2.53-4.1l39.61-112.32c2.89-7.03,10.79-5.74,13.53-5.74l0,0c2.74,0,5.17,1.76,6.03,4.36l21.91,66.25
			C383.64,183.06,382.81,184.2,381.64,184.2z M361.7,154.27c2.18,0,3.73-2.14,3.04-4.21l-5.78-17.4c-0.72-2.33-1.47-4.88-2.12-7.16
			c-0.52-1.8-3.08-1.79-3.57,0.01c-0.62,2.27-1.29,4.56-1.96,6.86l-5.87,17.69c-0.69,2.07,0.85,4.21,3.04,4.21H361.7z"/>
		<path class="st0" d="M297.87,242.58l1.62-4.37c0.31-1.98,2.06-3.34,3.9-3.05l10.48,1.28c0.9,0.14,1.5,1.04,1.35,2l-1.5,5.31
			c-0.31,1.98-2.06,3.34-3.9,3.05l-10.07-1.43C298.5,245.17,297.66,243.92,297.87,242.58z"/>
		<path class="st0" d="M296.58,250.14c-0.48-0.29-0.69-0.75-0.53-1.15l0.35-0.91c0.09-0.57,1.66-0.8,3.5-0.51l10.44,1.54
			c0.16,0.03,0.32,0.06,0.47,0.1c0.68,0.17,1.04,0.73,0.77,1.17l-0.58,1.21c-0.46,0.61-1.66,0.8-3.5,0.51l-9.53-1.41
			C297.61,250.71,297.04,250.42,296.58,250.14z"/>
	</g>
</g>
</svg>
