<?xml version="1.0" encoding="utf-8"?>
<!-- Generator: Adobe Adobe Illustrator 24.2.0, SVG Export Plug-In . SVG Version: 6.00 Build 0)  -->
<svg version="1.1" xmlns="http://www.w3.org/2000/svg" xmlns:xlink="http://www.w3.org/1999/xlink" x="0px" y="0px" width="612px"
	 height="301px" viewBox="0 0 612 301" style="enable-background:new 0 0 612 301;" xml:space="preserve">
<style type="text/css">
	.st0{fill:#FE5C46;}
	.st1{fill:none;}
</style>
<g id="About_me">
</g>
<g id="Skill">
	<path class="st0" d="M193.05,138.77c14.04,2.97,21.69,7.74,21.69,20.79c0,11.61-8.91,20.34-25.02,20.34
		c-20.52,0-24.75-10.62-26.91-17.91c-0.09-0.45-0.13-0.81-0.18-1.17c-0.15-1.12-0.67-2.22,3.42-3.78c3.52-0.95,4.58-0.87,5.49,2.52
		c1.62,6.03,4.59,12.78,17.73,12.78c10.26,0,12.65-4.95,12.65-12.69c0-7.38-0.05-10.62-10.67-12.78l-7.2-1.53
		c-13.5-2.79-19.62-7.92-19.62-19.71c0-9.45,7.02-18.63,23.94-18.63c21.52,0,23.94,15.92,24.03,16.47c0.17,1.02-0.17,2.18-2.53,3.1
		c-4.04,1.58-5.69,0.22-6.29-1.93c-1.44-5.13-5.22-10.17-15.21-10.17c-10.44,0-11.21,5.22-11.21,11.16c0,6.48-0.85,9.81,9.23,11.79
		L193.05,138.77z"/>
	<path class="st0" d="M277.74,172.25c0.54,0.72,0.81,1.53,0.81,2.34c0,1.35-0.81,2.7-1.98,3.6c-0.81,0.63-1.71,0.9-2.7,0.9
		c-1.17,0-2.43-0.54-3.15-1.53l-25.47-33.84l-9.81,9.99v21.6c0,2.43-0.35,4.19-6.23,4.19c-6.52,0-6.82-1.26-6.82-3.69V112
		c0-2.52,0.72-3.69,6.57-3.69c5.53,0,6.48,0.67,6.48,3.19v31.41l32.58-34.02c0.72-0.81,1.8-1.17,2.79-1.17
		c1.08,0,2.16,0.36,2.97,1.08c0.99,0.81,1.53,2.16,1.53,3.42c0,0.9-0.27,1.8-0.9,2.43l-23.22,23.4L277.74,172.25z"/>
	<path class="st0" d="M289.08,111.5c0-2.52,4.3-3.69,6.73-3.69c3.79,0,7.41,1.17,7.41,3.69v63.81c0,2.43-1.97,2.78-6.66,2.78
		c-5.16,0-7.48-0.35-7.48-2.78V111.5z"/>
	<rect x="514.46" y="34.49" class="st1" width="6.3" height="5.73"/>
	<path class="st0" d="M289.27,185.31v-3.71c0-1.39,1.13-2.52,2.52-2.52h8.71c1.39,0,2.52,1.13,2.52,2.52v3.71
		c0,1.39-1.13,2.52-2.52,2.52h-8.71C290.4,187.83,289.27,186.71,289.27,185.31z"/>
	<path class="st0" d="M289.52,190.82L289.52,190.82c0-1.04,0.84-1.88,1.87-1.88l9.5,0c1.04,0,1.88,0.84,1.88,1.88l0,0
		c0,1.04-0.84,1.87-1.88,1.87l-9.5,0C290.36,192.69,289.52,191.85,289.52,190.82z"/>
	<path class="st0" d="M222.39,186.62v-3.71c0-1.39,1.13-2.52,2.52-2.52h8.71c1.39,0,2.52,1.13,2.52,2.52v3.71
		c0,1.39-1.13,2.52-2.52,2.52h-8.71C223.52,189.15,222.39,188.02,222.39,186.62z"/>
	<path class="st0" d="M222.64,192.13L222.64,192.13c0-1.04,0.84-1.88,1.88-1.88l9.5,0c1.04,0,1.87,0.84,1.87,1.88l0,0
		c0,1.04-0.84,1.87-1.87,1.87l-9.5,0C223.48,194,222.64,193.16,222.64,192.13z"/>
	<g>
		<path class="st0" d="M320.08,112.15c0-2.7,3.93-3.37,8.54-3.37c4.74,0,5.89,0.67,5.89,3.28v55.62c0,2.07,0.74,4.4,2.41,4.4h25.64
			c1.88,0,3.17-0.41,3.17,2.91c0,4.61-0.87,3.94-2.97,3.94h-27.81c-5.14,0-15.14,0.33-14.86-9.63V112.15z"/>
		<path class="st0" d="M366.36,176.9l0-3.29c0-0.96,0.78-1.73,1.73-1.73h0.84c0.96,0,1.73,0.78,1.73,1.73v3.29
			c0,0.96-0.78,1.73-1.73,1.73h-0.84C367.13,178.63,366.36,177.86,366.36,176.9z"/>
		<path class="st0" d="M371.31,177.61v-4.7c0-0.5,0.4-0.9,0.9-0.9h0.22c0.5,0,0.9,0.4,0.9,0.9v4.7c0,0.5-0.4,0.9-0.9,0.9h-0.22
			C371.71,178.51,371.31,178.11,371.31,177.61z"/>
	</g>
	<g>
		<path class="st0" d="M379.08,112.15c0-2.7,3.93-3.37,8.54-3.37c4.74,0,5.89,0.67,5.89,3.28v55.62c0,2.07,0.74,4.4,2.41,4.4h25.64
			c1.88,0,3.17-0.41,3.17,2.91c0,4.61-0.87,3.94-2.97,3.94h-27.81c-5.14,0-15.14,0.33-14.86-9.63V112.15z"/>
		<path class="st0" d="M425.36,176.9l0-3.29c0-0.96,0.78-1.73,1.73-1.73h0.84c0.96,0,1.73,0.78,1.73,1.73v3.29
			c0,0.96-0.78,1.73-1.73,1.73h-0.84C426.13,178.63,425.36,177.86,425.36,176.9z"/>
		<path class="st0" d="M430.31,177.61v-4.7c0-0.5,0.4-0.9,0.9-0.9h0.22c0.5,0,0.9,0.4,0.9,0.9v4.7c0,0.5-0.4,0.9-0.9,0.9h-0.22
			C430.71,178.51,430.31,178.11,430.31,177.61z"/>
	</g>
</g>
<g id="PORTFOLIO">
</g>
<g id="レイヤー_5">
</g>
<g id="Contact">
</g>
</svg>
